# xmcd
# Copyright (C) 1995-1998 Ti Kan
#
# Track frame offsets:
#       150
#       12115
#       23767
#       34490
#       46514
#       56983
#       70684
#       85333
#       99828
#       115504
#       133055
#       146223
#       159174
#       170987
#       188197
#       200928
#       215021
#       228162
#       242553
#       254902
#
# Disc length: 3587 seconds
#
# Revision: 0
# Processed by: cddbd v1.5.2PL0 Copyright (c) Steve Scherf et al.
# Submitted via: CD-Transfer v1.0
#
DISCID=200e0114
DTITLE=Slavko Avsenik - 
DYEAR=1900
DGENRE=
TTITLE0=Ein Feuerwerk Der Musik
TTITLE1=Tante Mizzi
TTITLE2=Es Ist So Schön Ein Musikant Zu Sein
TTITLE3=Durchs Lechtal
TTITLE4=Beim Dorfwirt
TTITLE5=Rendezvous In Oberkrain
TTITLE6=Gregor Und Seine Gitarre
TTITLE7=Zwei Weisse Schwäne
TTITLE8=Freundschaft Kennt Keine Grenzen
TTITLE9=Hirtenlied
TTITLE10=Die Kleine Eisenbahn
TTITLE11=Saitensprung Polka
TTITLE12=Wisch Wasch Polka
TTITLE13=Zigeunerin
TTITLE14=Steirer Hansi Polka
TTITLE15=Weidmannsheil
TTITLE16=40 Jahre Avsenik
TTITLE17=Komm Mit Mir Nach Oberkrain
TTITLE18=In Lustiger Gesellschaft
TTITLE19=Wiegenlied
EXTD=
EXTT0=
EXTT1=
EXTT2=
EXTT3=
EXTT4=
EXTT5=
EXTT6=
EXTT7=
EXTT8=
EXTT9=
EXTT10=
EXTT11=
EXTT12=
EXTT13=
EXTT14=
EXTT15=
EXTT16=
EXTT17=
EXTT18=
EXTT19=
PLAYORDER=
